<svg xmlns="http://www.w3.org/2000/svg" viewBox="0 0 594.75 158.52"><defs><style>.cls-1{fill:#fff;}</style></defs><title>bijelo ml</title><g id="Layer_2" data-name="Layer 2"><g id="Layer_1-2" data-name="Layer 1"><path class="cls-1" d="M65.77,18.45V81.54H58.28V35.18c0-.62,0-1.28.07-2s.09-1.43.15-2.16L36.84,70.49a3.27,3.27,0,0,1-3.08,2H32.53a3.27,3.27,0,0,1-3.08-2L7.34,30.86a37.88,37.88,0,0,1,.27,4.32V81.54H.12V18.45h6.3a5.39,5.39,0,0,1,1.76.22A2.56,2.56,0,0,1,9.37,19.9L31.16,58.73c.36.71.7,1.44,1,2.21s.65,1.54.94,2.33c.3-.79.61-1.58.93-2.36a21.63,21.63,0,0,1,1.06-2.22L56.52,19.9a2.38,2.38,0,0,1,1.17-1.23,5.56,5.56,0,0,1,1.78-.22Z"/><path class="cls-1" d="M133.18,81.54h-6.61a2.86,2.86,0,0,1-1.85-.57,3.45,3.45,0,0,1-1-1.46l-5.9-15.23H89.46l-5.9,15.23a3.12,3.12,0,0,1-1,1.41,2.81,2.81,0,0,1-1.85.62h-6.6L99.32,18.45H108ZM115.39,58.12l-9.91-25.67c-.29-.76-.6-1.65-.92-2.66s-.63-2.1-.93-3.24a47.43,47.43,0,0,1-1.89,5.94L91.83,58.12Z"/><path class="cls-1" d="M188.12,81.54h-7.57a3.74,3.74,0,0,1-3.44-1.81L160.74,57.19a5,5,0,0,0-1.61-1.52,6,6,0,0,0-2.66-.46H150V81.54H141.5V18.45h17.83a38.78,38.78,0,0,1,10.34,1.21,19.68,19.68,0,0,1,7.2,3.5,14,14,0,0,1,4.21,5.52,18.51,18.51,0,0,1,1.36,7.25,18,18,0,0,1-1.06,6.25,16.48,16.48,0,0,1-3,5.22,18.53,18.53,0,0,1-4.89,3.94,24.07,24.07,0,0,1-6.54,2.46,8.38,8.38,0,0,1,2.82,2.69ZM159,49a21.63,21.63,0,0,0,6.54-.9,13.36,13.36,0,0,0,4.76-2.55,10.64,10.64,0,0,0,2.88-3.94,12.84,12.84,0,0,0,1-5.07c0-3.75-1.23-6.59-3.7-8.49s-6.16-2.87-11.09-2.87H150V49Z"/><path class="cls-1" d="M205.2,81.54h-8.54V18.45h8.54Z"/><path class="cls-1" d="M272.43,18.45V81.54h-4.27a3.71,3.71,0,0,1-1.69-.35A4.26,4.26,0,0,1,265.13,80l-36.5-47.55c.06.73.1,1.45.13,2.16s0,1.36,0,2v45h-7.48V18.45h4.4a6.61,6.61,0,0,1,1,.06,2.74,2.74,0,0,1,.7.22,3,3,0,0,1,.62.44,7.07,7.07,0,0,1,.66.73l36.5,47.51c-.06-.77-.11-1.51-.15-2.23s-.07-1.4-.07-2V18.45Z"/><path class="cls-1" d="M346.84,50a36.6,36.6,0,0,1-2.24,13,29.93,29.93,0,0,1-6.34,10.19,28.28,28.28,0,0,1-9.84,6.62,35.32,35.32,0,0,1-25.39,0,28.39,28.39,0,0,1-9.82-6.62A29.75,29.75,0,0,1,286.88,63a36.38,36.38,0,0,1-2.25-13,36.3,36.3,0,0,1,2.25-13,29.88,29.88,0,0,1,6.33-10.22A28.65,28.65,0,0,1,303,20.12a35,35,0,0,1,25.39,0,28.54,28.54,0,0,1,9.84,6.67A30.06,30.06,0,0,1,344.6,37,36.52,36.52,0,0,1,346.84,50Zm-8.76,0a32,32,0,0,0-1.59-10.44A21.94,21.94,0,0,0,332,31.77a19.32,19.32,0,0,0-7-4.91,25.6,25.6,0,0,0-18.45,0,19.69,19.69,0,0,0-7.07,4.91,22,22,0,0,0-4.51,7.81A32.25,32.25,0,0,0,293.35,50a32.06,32.06,0,0,0,1.58,10.41,22,22,0,0,0,4.51,7.79,19.52,19.52,0,0,0,7.07,4.89,26,26,0,0,0,18.45,0,19.16,19.16,0,0,0,7-4.89,21.94,21.94,0,0,0,4.49-7.79A31.79,31.79,0,0,0,338.08,50Z"/><path class="cls-1" d="M417.37,74.36v7.18H381.58V18.45h8.5V74.36Z"/><path class="cls-1" d="M435.34,81.54h-8.55V18.45h8.55Z"/><path class="cls-1" d="M502.57,18.45V81.54H498.3a3.76,3.76,0,0,1-1.7-.35A4.37,4.37,0,0,1,495.26,80l-36.5-47.55c.06.73.1,1.45.13,2.16s0,1.36,0,2v45h-7.48V18.45h4.4a6.61,6.61,0,0,1,1,.06,2.62,2.62,0,0,1,.7.22,2.72,2.72,0,0,1,.62.44,7.07,7.07,0,0,1,.66.73l36.5,47.51c-.06-.77-.11-1.51-.15-2.23s-.07-1.4-.07-2V18.45Z"/><path class="cls-1" d="M527.22,81.54h-8.54V18.45h8.54Z"/><path class="cls-1" d="M587.58,68.51a1.66,1.66,0,0,1,1.24.57l3.39,3.65a27,27,0,0,1-9.4,7,32.1,32.1,0,0,1-13.37,2.51,31.17,31.17,0,0,1-12.32-2.35,27,27,0,0,1-9.47-6.61,29.92,29.92,0,0,1-6.08-10.19A38.25,38.25,0,0,1,539.42,50a36.65,36.65,0,0,1,2.24-13.08A29.84,29.84,0,0,1,548,26.73a28.22,28.22,0,0,1,9.75-6.63,32.47,32.47,0,0,1,12.55-2.36,30.57,30.57,0,0,1,11.89,2.16,30,30,0,0,1,9.07,5.86l-2.82,3.91a2.27,2.27,0,0,1-.68.73,2,2,0,0,1-1.13.29,3.51,3.51,0,0,1-1.93-.86,30.94,30.94,0,0,0-3-1.92,24.78,24.78,0,0,0-20.38-1.08,19.66,19.66,0,0,0-7,4.91,22.85,22.85,0,0,0-4.56,7.84A31.42,31.42,0,0,0,548.13,50a30.43,30.43,0,0,0,1.7,10.52,23.18,23.18,0,0,0,4.62,7.81,19.62,19.62,0,0,0,6.91,4.87A22.13,22.13,0,0,0,570,74.89a35.57,35.57,0,0,0,5.09-.33,20.79,20.79,0,0,0,4.18-1,17.53,17.53,0,0,0,3.57-1.79,25.57,25.57,0,0,0,3.28-2.57A2.24,2.24,0,0,1,587.58,68.51Zm0-68.51L573.27,12.59a2.81,2.81,0,0,1-1.27.75,7.15,7.15,0,0,1-1.5.13h-5.64L575,1.41A3.14,3.14,0,0,1,576.55.22,8.51,8.51,0,0,1,578.78,0Z"/><path class="cls-1" d="M253.8,97.12c.48.77,1.34,2.3,2.84,5.28l.83,1.65H272a5.53,5.53,0,0,1,5.52,5.53v39.64a5.53,5.53,0,0,1-5.52,5.53H218.19a5.54,5.54,0,0,1-5.53-5.53V109.58a5.54,5.54,0,0,1,5.53-5.53h15.09l.79-1.79c1.24-2.83,2-4.34,2.43-5.14h17.3m1.37-3H235c-.51,0-2.09,3.25-3.71,6.93H218.19a8.53,8.53,0,0,0-8.53,8.53v39.64a8.53,8.53,0,0,0,8.53,8.53H272a8.52,8.52,0,0,0,8.52-8.53V109.58a8.52,8.52,0,0,0-8.52-8.53H259.32c-1.82-3.63-3.62-6.93-4.15-6.93Z"/><path class="cls-1" d="M245.26,115a14.38,14.38,0,1,1-14.38,14.38A14.39,14.39,0,0,1,245.26,115m0-2a16.38,16.38,0,1,0,16.37,16.38A16.38,16.38,0,0,0,245.26,113Z"/><path class="cls-1" d="M264.54,106.88a3.35,3.35,0,1,1-3.35,3.35,3.35,3.35,0,0,1,3.35-3.35m0-1a4.35,4.35,0,1,0,4.35,4.35,4.35,4.35,0,0,0-4.35-4.35Z"/><path class="cls-1" d="M14.46,102q9.83,0,14.83,4.31t5,12.28a16.3,16.3,0,0,1-1.38,6.75A15.21,15.21,0,0,1,29,130.66a18.47,18.47,0,0,1-6.24,3.47,25.62,25.62,0,0,1-8.25,1.25H4.07v22.51H0V102Zm0,30.14a19.94,19.94,0,0,0,6.59-1,14.58,14.58,0,0,0,5-2.84A12.35,12.35,0,0,0,29.13,124a13.28,13.28,0,0,0,1.09-5.39q0-6.44-3.95-9.91T14.46,105.2H4.07v26.94Z"/><path class="cls-1" d="M88.79,102v55.89H84.72V131.11h-35v26.78H45.66V102h4.07v26.07h35V102Z"/><path class="cls-1" d="M155,129.93A34,34,0,0,1,153,141.68a26.12,26.12,0,0,1-5.45,9,24,24,0,0,1-8.43,5.77,29.93,29.93,0,0,1-21.67,0,24.15,24.15,0,0,1-8.41-5.77,26.12,26.12,0,0,1-5.45-9,36.46,36.46,0,0,1,0-23.47,26.12,26.12,0,0,1,5.45-9,24.33,24.33,0,0,1,8.41-5.79,27.76,27.76,0,0,1,10.83-2,28.21,28.21,0,0,1,10.84,2,24,24,0,0,1,8.43,5.79,26.31,26.31,0,0,1,5.45,9A33.82,33.82,0,0,1,155,129.93Zm-4.19,0a31.9,31.9,0,0,0-1.62-10.51,22.51,22.51,0,0,0-4.58-7.9,19.89,19.89,0,0,0-7.11-5,25.17,25.17,0,0,0-18.29,0,20.06,20.06,0,0,0-7.13,5,22.44,22.44,0,0,0-4.62,7.9,34.53,34.53,0,0,0,0,21,22.43,22.43,0,0,0,4.62,7.88,19.76,19.76,0,0,0,7.13,4.94,25.45,25.45,0,0,0,18.29,0,19.6,19.6,0,0,0,7.11-4.94,22.51,22.51,0,0,0,4.58-7.88A31.79,31.79,0,0,0,150.76,129.93Z"/><path class="cls-1" d="M200.88,105.44H181.25v52.45h-4.07V105.44H157.44V102h43.44Z"/><path class="cls-1" d="M338.33,132.53V152.4a32.25,32.25,0,0,1-19.59,6.12,33.2,33.2,0,0,1-11.93-2,25.64,25.64,0,0,1-9-5.77,25.09,25.09,0,0,1-5.73-9,33.09,33.09,0,0,1-2-11.76A33.74,33.74,0,0,1,292,118.17a25.29,25.29,0,0,1,5.61-9,25,25,0,0,1,8.83-5.77,31.74,31.74,0,0,1,11.65-2,37.46,37.46,0,0,1,5.91.43,27,27,0,0,1,5,1.29,23.59,23.59,0,0,1,4.35,2.09,29.68,29.68,0,0,1,3.87,2.86l-1.11,1.74a1.14,1.14,0,0,1-1.66.44,8.28,8.28,0,0,1-1.7-1.11,17,17,0,0,0-3-1.82,26.89,26.89,0,0,0-4.8-1.7,27.88,27.88,0,0,0-7-.75,26.59,26.59,0,0,0-9.85,1.74,20.84,20.84,0,0,0-7.51,5,22,22,0,0,0-4.78,7.9,30.71,30.71,0,0,0-1.68,10.47,31.27,31.27,0,0,0,1.68,10.58,21.91,21.91,0,0,0,4.86,8,21.17,21.17,0,0,0,7.72,5,28.65,28.65,0,0,0,10.23,1.73,31.21,31.21,0,0,0,4.6-.31,29,29,0,0,0,4-.89,26.91,26.91,0,0,0,3.72-1.42c1.19-.57,2.41-1.21,3.65-1.92v-15H324a1,1,0,0,1-.73-.27.86.86,0,0,1-.3-.64v-2.21Z"/><path class="cls-1" d="M390.31,157.89h-3.47a2.53,2.53,0,0,1-1.13-.22,2.15,2.15,0,0,1-.85-.81l-17.93-22.67a5.48,5.48,0,0,0-.65-.75,2.47,2.47,0,0,0-.76-.49,3.58,3.58,0,0,0-1-.26,10.92,10.92,0,0,0-1.4-.08h-7.31v25.28h-4.07V102h14.3q9.63,0,14.44,3.73t4.79,11a15,15,0,0,1-1.1,5.85,13.82,13.82,0,0,1-3.18,4.64,16.56,16.56,0,0,1-5,3.26,23.81,23.81,0,0,1-6.61,1.7,6.47,6.47,0,0,1,1.7,1.58Zm-24.8-28.28a23.07,23.07,0,0,0,6.65-.89,14.29,14.29,0,0,0,5-2.55,11,11,0,0,0,3.1-4,12.47,12.47,0,0,0,1.06-5.25c0-4-1.29-6.92-3.89-8.85s-6.38-2.88-11.35-2.88H355.83v24.41Z"/><path class="cls-1" d="M442.21,157.89h-3.12a1.37,1.37,0,0,1-.91-.3,1.84,1.84,0,0,1-.55-.77l-6.56-16.23H403.62l-6.56,16.23a1.67,1.67,0,0,1-.55.75,1.47,1.47,0,0,1-.95.32h-3.08L415.35,102h4Zm-12.36-20.3-11.38-28.24a27.53,27.53,0,0,1-1.14-3.32c-.16.63-.33,1.23-.52,1.8a16.45,16.45,0,0,1-.59,1.56l-11.37,28.2Z"/><path class="cls-1" d="M466,102q9.82,0,14.83,4.31t5,12.28a16.3,16.3,0,0,1-1.38,6.75,15.21,15.21,0,0,1-3.95,5.32,18.47,18.47,0,0,1-6.24,3.47,25.62,25.62,0,0,1-8.25,1.25H455.56v22.51h-4.07V102Zm0,30.14a19.9,19.9,0,0,0,6.59-1,14.58,14.58,0,0,0,5-2.84,12.23,12.23,0,0,0,3.12-4.29,13.28,13.28,0,0,0,1.09-5.39q0-6.44-3.95-9.91T466,105.2H455.56v26.94Z"/><path class="cls-1" d="M540.28,102v55.89h-4.07V131.11h-35v26.78h-4.07V102h4.07v26.07h35V102Z"/><path class="cls-1" d="M574.05,134.86v23h-4v-23L549.32,102h3.56a1.53,1.53,0,0,1,.91.26,2,2,0,0,1,.59.73l16,25.67c.34.61.65,1.19.94,1.76a15.46,15.46,0,0,1,.75,1.68c.21-.56.45-1.12.71-1.68s.57-1.15.91-1.76l16-25.67a1.73,1.73,0,0,1,.57-.71,1.49,1.49,0,0,1,.93-.28h3.56Z"/></g></g></svg>